<mxfile host="app.diagrams.net" modified="2021-09-16T10:03:33.216Z" agent="5.0 (Windows NT 10.0; Win64; x64) AppleWebKit/537.36 (KHTML, like Gecko) Chrome/93.0.4577.63 Safari/537.36 Edg/93.0.961.47" etag="9TPldMiCkfi16UmqtVDu" version="15.2.7" type="github">
  <diagram id="SYxJ4YYhjCTXh5g7osGg" name="Page-1">
    <mxGraphModel dx="981" dy="548" grid="1" gridSize="14" guides="1" tooltips="1" connect="1" arrows="1" fold="1" page="1" pageScale="1" pageWidth="850" pageHeight="1100" math="0" shadow="0">
      <root>
        <mxCell id="0" />
        <mxCell id="1" parent="0" />
        <mxCell id="bkOEcCzMHXBcIPFpQamP-4" value="&lt;font style=&quot;font-size: 21px&quot;&gt;User&lt;/font&gt;" style="rounded=0;whiteSpace=wrap;html=1;" vertex="1" parent="1">
          <mxGeometry x="384" y="380" width="120" height="60" as="geometry" />
        </mxCell>
        <mxCell id="bkOEcCzMHXBcIPFpQamP-5" value="&lt;font style=&quot;font-size: 16px&quot;&gt;Booking&lt;/font&gt;" style="rounded=0;whiteSpace=wrap;html=1;" vertex="1" parent="1">
          <mxGeometry x="360" y="160" width="120" height="60" as="geometry" />
        </mxCell>
        <mxCell id="bkOEcCzMHXBcIPFpQamP-8" value="&lt;font style=&quot;font-size: 23px&quot;&gt;Listing&lt;/font&gt;" style="rounded=0;whiteSpace=wrap;html=1;" vertex="1" parent="1">
          <mxGeometry x="651" y="380" width="120" height="60" as="geometry" />
        </mxCell>
        <mxCell id="bkOEcCzMHXBcIPFpQamP-9" value="Message" style="rounded=0;whiteSpace=wrap;html=1;" vertex="1" parent="1">
          <mxGeometry x="112" y="380" width="120" height="60" as="geometry" />
        </mxCell>
        <mxCell id="bkOEcCzMHXBcIPFpQamP-10" value="Review" style="rounded=0;whiteSpace=wrap;html=1;" vertex="1" parent="1">
          <mxGeometry x="360" y="630" width="120" height="60" as="geometry" />
        </mxCell>
        <mxCell id="bkOEcCzMHXBcIPFpQamP-11" value="rating" style="ellipse;whiteSpace=wrap;html=1;" vertex="1" parent="1">
          <mxGeometry x="385" y="574" width="70" height="42" as="geometry" />
        </mxCell>
        <mxCell id="bkOEcCzMHXBcIPFpQamP-12" value="comment" style="ellipse;whiteSpace=wrap;html=1;" vertex="1" parent="1">
          <mxGeometry x="504" y="693" width="70" height="42" as="geometry" />
        </mxCell>
        <mxCell id="bkOEcCzMHXBcIPFpQamP-13" value="&lt;u&gt;review_id&lt;/u&gt;" style="ellipse;whiteSpace=wrap;html=1;" vertex="1" parent="1">
          <mxGeometry x="353" y="700" width="62" height="42" as="geometry" />
        </mxCell>
        <mxCell id="bkOEcCzMHXBcIPFpQamP-14" value="author_id" style="ellipse;whiteSpace=wrap;html=1;" vertex="1" parent="1">
          <mxGeometry x="238" y="648" width="70" height="42" as="geometry" />
        </mxCell>
        <mxCell id="bkOEcCzMHXBcIPFpQamP-15" value="target_id" style="ellipse;whiteSpace=wrap;html=1;" vertex="1" parent="1">
          <mxGeometry x="268" y="700" width="70" height="42" as="geometry" />
        </mxCell>
        <mxCell id="bkOEcCzMHXBcIPFpQamP-16" value="&lt;font style=&quot;font-size: 10px&quot;&gt;timestamp&lt;/font&gt;" style="ellipse;whiteSpace=wrap;html=1;" vertex="1" parent="1">
          <mxGeometry x="434" y="700" width="56" height="28" as="geometry" />
        </mxCell>
        <mxCell id="bkOEcCzMHXBcIPFpQamP-17" value="&lt;u&gt;message_id&lt;/u&gt;" style="ellipse;whiteSpace=wrap;html=1;" vertex="1" parent="1">
          <mxGeometry x="132" y="322" width="80" height="42" as="geometry" />
        </mxCell>
        <mxCell id="bkOEcCzMHXBcIPFpQamP-18" value="written_by_id" style="ellipse;whiteSpace=wrap;html=1;" vertex="1" parent="1">
          <mxGeometry x="125" y="462" width="94" height="28" as="geometry" />
        </mxCell>
        <mxCell id="bkOEcCzMHXBcIPFpQamP-19" value="content" style="ellipse;whiteSpace=wrap;html=1;" vertex="1" parent="1">
          <mxGeometry x="36" y="364" width="64" height="32" as="geometry" />
        </mxCell>
        <mxCell id="bkOEcCzMHXBcIPFpQamP-20" value="&lt;font style=&quot;font-size: 10px&quot;&gt;timestamp&lt;/font&gt;" style="ellipse;whiteSpace=wrap;html=1;" vertex="1" parent="1">
          <mxGeometry x="40" y="408" width="56" height="28" as="geometry" />
        </mxCell>
        <mxCell id="bkOEcCzMHXBcIPFpQamP-21" value="&lt;u&gt;listing_id&lt;/u&gt;" style="ellipse;whiteSpace=wrap;html=1;" vertex="1" parent="1">
          <mxGeometry x="756" y="294" width="60" height="28" as="geometry" />
        </mxCell>
        <mxCell id="bkOEcCzMHXBcIPFpQamP-22" value="owner_id" style="ellipse;whiteSpace=wrap;html=1;" vertex="1" parent="1">
          <mxGeometry x="718" y="504" width="56" height="28" as="geometry" />
        </mxCell>
        <mxCell id="bkOEcCzMHXBcIPFpQamP-23" value="title" style="ellipse;whiteSpace=wrap;html=1;" vertex="1" parent="1">
          <mxGeometry x="651" y="504" width="56" height="28" as="geometry" />
        </mxCell>
        <mxCell id="bkOEcCzMHXBcIPFpQamP-25" value="location" style="ellipse;whiteSpace=wrap;html=1;" vertex="1" parent="1">
          <mxGeometry x="595" y="458" width="56" height="28" as="geometry" />
        </mxCell>
        <mxCell id="bkOEcCzMHXBcIPFpQamP-26" value="&lt;font style=&quot;font-size: 10px&quot;&gt;listing_start_date&lt;/font&gt;" style="ellipse;whiteSpace=wrap;html=1;" vertex="1" parent="1">
          <mxGeometry x="574" y="294" width="98" height="28" as="geometry" />
        </mxCell>
        <mxCell id="bkOEcCzMHXBcIPFpQamP-27" value="&lt;font style=&quot;font-size: 10px&quot;&gt;listing_end_date&lt;/font&gt;" style="ellipse;whiteSpace=wrap;html=1;" vertex="1" parent="1">
          <mxGeometry x="560" y="336" width="98" height="28" as="geometry" />
        </mxCell>
        <mxCell id="bkOEcCzMHXBcIPFpQamP-28" value="&lt;font style=&quot;font-size: 10px&quot;&gt;description&lt;/font&gt;" style="ellipse;whiteSpace=wrap;html=1;" vertex="1" parent="1">
          <mxGeometry x="784" y="368" width="56" height="28" as="geometry" />
        </mxCell>
        <mxCell id="bkOEcCzMHXBcIPFpQamP-29" value="&lt;font style=&quot;font-size: 10px&quot;&gt;nr_guests&lt;/font&gt;" style="ellipse;whiteSpace=wrap;html=1;" vertex="1" parent="1">
          <mxGeometry x="784" y="408" width="56" height="28" as="geometry" />
        </mxCell>
        <mxCell id="bkOEcCzMHXBcIPFpQamP-30" value="&lt;font style=&quot;font-size: 10px&quot;&gt;image_url&lt;/font&gt;" style="ellipse;whiteSpace=wrap;html=1;" vertex="1" parent="1">
          <mxGeometry x="784" y="440" width="56" height="28" as="geometry" />
        </mxCell>
        <mxCell id="bkOEcCzMHXBcIPFpQamP-31" value="&lt;span style=&quot;font-size: 8px&quot;&gt;version&lt;br&gt;&lt;/span&gt;" style="ellipse;whiteSpace=wrap;html=1;" vertex="1" parent="1">
          <mxGeometry x="686" y="294" width="56" height="28" as="geometry" />
        </mxCell>
        <mxCell id="bkOEcCzMHXBcIPFpQamP-32" value="price" style="ellipse;whiteSpace=wrap;html=1;" vertex="1" parent="1">
          <mxGeometry x="784" y="336" width="56" height="28" as="geometry" />
        </mxCell>
        <mxCell id="bkOEcCzMHXBcIPFpQamP-35" value="audited" style="ellipse;whiteSpace=wrap;html=1;" vertex="1" parent="1">
          <mxGeometry x="778" y="476" width="59" height="28" as="geometry" />
        </mxCell>
        <mxCell id="bkOEcCzMHXBcIPFpQamP-36" value="&lt;font style=&quot;font-size: 10px&quot;&gt;&lt;u&gt;booking_id&lt;/u&gt;&lt;/font&gt;" style="ellipse;whiteSpace=wrap;html=1;" vertex="1" parent="1">
          <mxGeometry x="406" y="112" width="65" height="28" as="geometry" />
        </mxCell>
        <mxCell id="bkOEcCzMHXBcIPFpQamP-37" value="booked_by_user" style="ellipse;whiteSpace=wrap;html=1;" vertex="1" parent="1">
          <mxGeometry x="490" y="154" width="112" height="28" as="geometry" />
        </mxCell>
        <mxCell id="bkOEcCzMHXBcIPFpQamP-38" value="listing_booked" style="ellipse;whiteSpace=wrap;html=1;" vertex="1" parent="1">
          <mxGeometry x="258" y="126" width="90" height="28" as="geometry" />
        </mxCell>
        <mxCell id="bkOEcCzMHXBcIPFpQamP-39" value="booking_start_date" style="ellipse;whiteSpace=wrap;html=1;" vertex="1" parent="1">
          <mxGeometry x="226" y="168" width="122" height="28" as="geometry" />
        </mxCell>
        <mxCell id="bkOEcCzMHXBcIPFpQamP-40" value="booking_end_date" style="ellipse;whiteSpace=wrap;html=1;" vertex="1" parent="1">
          <mxGeometry x="227.5" y="210" width="119" height="28" as="geometry" />
        </mxCell>
        <mxCell id="bkOEcCzMHXBcIPFpQamP-41" value="amount_payed" style="ellipse;whiteSpace=wrap;html=1;" vertex="1" parent="1">
          <mxGeometry x="290" y="84" width="102" height="28" as="geometry" />
        </mxCell>
        <mxCell id="bkOEcCzMHXBcIPFpQamP-42" value="cancelled" style="ellipse;whiteSpace=wrap;html=1;" vertex="1" parent="1">
          <mxGeometry x="480" y="112" width="70" height="28" as="geometry" />
        </mxCell>
        <mxCell id="bkOEcCzMHXBcIPFpQamP-43" value="&lt;u&gt;user_id&lt;/u&gt;" style="ellipse;whiteSpace=wrap;html=1;" vertex="1" parent="1">
          <mxGeometry x="382" y="456" width="59" height="32" as="geometry" />
        </mxCell>
        <mxCell id="bkOEcCzMHXBcIPFpQamP-44" value="balance" style="ellipse;whiteSpace=wrap;html=1;" vertex="1" parent="1">
          <mxGeometry x="397" y="336" width="56" height="28" as="geometry" />
        </mxCell>
        <mxCell id="bkOEcCzMHXBcIPFpQamP-45" value="e-mail" style="ellipse;whiteSpace=wrap;html=1;" vertex="1" parent="1">
          <mxGeometry x="301" y="454" width="70" height="28" as="geometry" />
        </mxCell>
        <mxCell id="bkOEcCzMHXBcIPFpQamP-46" value="&lt;font style=&quot;font-size: 10px&quot;&gt;username&lt;/font&gt;" style="ellipse;whiteSpace=wrap;html=1;" vertex="1" parent="1">
          <mxGeometry x="322" y="348.25" width="59" height="28" as="geometry" />
        </mxCell>
        <mxCell id="bkOEcCzMHXBcIPFpQamP-48" value="&lt;font style=&quot;font-size: 10px&quot;&gt;password&lt;/font&gt;" style="ellipse;whiteSpace=wrap;html=1;" vertex="1" parent="1">
          <mxGeometry x="462" y="458" width="56" height="28" as="geometry" />
        </mxCell>
        <mxCell id="bkOEcCzMHXBcIPFpQamP-53" value="" style="edgeStyle=entityRelationEdgeStyle;fontSize=12;html=1;endArrow=ERzeroToMany;endFill=1;exitX=1;exitY=0.5;exitDx=0;exitDy=0;entryX=0;entryY=0.5;entryDx=0;entryDy=0;startArrow=none;" edge="1" parent="1" source="bkOEcCzMHXBcIPFpQamP-75" target="bkOEcCzMHXBcIPFpQamP-8">
          <mxGeometry width="100" height="100" relative="1" as="geometry">
            <mxPoint x="560" y="520" as="sourcePoint" />
            <mxPoint x="660" y="420" as="targetPoint" />
          </mxGeometry>
        </mxCell>
        <mxCell id="bkOEcCzMHXBcIPFpQamP-60" value="" style="edgeStyle=entityRelationEdgeStyle;fontSize=12;html=1;endArrow=ERzeroToMany;endFill=1;" edge="1" parent="1">
          <mxGeometry width="100" height="100" relative="1" as="geometry">
            <mxPoint x="426" y="439" as="sourcePoint" />
            <mxPoint x="360" y="658" as="targetPoint" />
          </mxGeometry>
        </mxCell>
        <mxCell id="bkOEcCzMHXBcIPFpQamP-61" value="" style="edgeStyle=entityRelationEdgeStyle;fontSize=12;html=1;endArrow=ERzeroToMany;endFill=1;startArrow=none;" edge="1" parent="1" source="bkOEcCzMHXBcIPFpQamP-73" target="bkOEcCzMHXBcIPFpQamP-9">
          <mxGeometry width="100" height="100" relative="1" as="geometry">
            <mxPoint x="364" y="410" as="sourcePoint" />
            <mxPoint x="266" y="420" as="targetPoint" />
          </mxGeometry>
        </mxCell>
        <mxCell id="bkOEcCzMHXBcIPFpQamP-62" value="" style="edgeStyle=entityRelationEdgeStyle;fontSize=12;html=1;endArrow=ERzeroToMany;endFill=1;startArrow=none;" edge="1" parent="1" source="bkOEcCzMHXBcIPFpQamP-63" target="bkOEcCzMHXBcIPFpQamP-5">
          <mxGeometry width="100" height="100" relative="1" as="geometry">
            <mxPoint x="436" y="378" as="sourcePoint" />
            <mxPoint x="506" y="238" as="targetPoint" />
          </mxGeometry>
        </mxCell>
        <mxCell id="bkOEcCzMHXBcIPFpQamP-63" value="Can &lt;br&gt;have" style="rhombus;whiteSpace=wrap;html=1;" vertex="1" parent="1">
          <mxGeometry x="480" y="252" width="56" height="56" as="geometry" />
        </mxCell>
        <mxCell id="bkOEcCzMHXBcIPFpQamP-64" value="" style="edgeStyle=entityRelationEdgeStyle;fontSize=12;html=1;endArrow=none;endFill=1;" edge="1" parent="1" target="bkOEcCzMHXBcIPFpQamP-63">
          <mxGeometry width="100" height="100" relative="1" as="geometry">
            <mxPoint x="436" y="378" as="sourcePoint" />
            <mxPoint x="480" y="190" as="targetPoint" />
          </mxGeometry>
        </mxCell>
        <mxCell id="bkOEcCzMHXBcIPFpQamP-65" value="Can &lt;br&gt;make" style="rhombus;whiteSpace=wrap;html=1;" vertex="1" parent="1">
          <mxGeometry x="301" y="550" width="56" height="56" as="geometry" />
        </mxCell>
        <mxCell id="bkOEcCzMHXBcIPFpQamP-71" value="" style="edgeStyle=entityRelationEdgeStyle;fontSize=12;html=1;endArrow=ERoneToMany;" edge="1" parent="1">
          <mxGeometry width="100" height="100" relative="1" as="geometry">
            <mxPoint x="480" y="666" as="sourcePoint" />
            <mxPoint x="560" y="434" as="targetPoint" />
          </mxGeometry>
        </mxCell>
        <mxCell id="bkOEcCzMHXBcIPFpQamP-72" value="Can &lt;br&gt;be placed on" style="rhombus;whiteSpace=wrap;html=1;" vertex="1" parent="1">
          <mxGeometry x="490" y="518" width="63" height="70" as="geometry" />
        </mxCell>
        <mxCell id="bkOEcCzMHXBcIPFpQamP-73" value="Can write and read" style="rhombus;whiteSpace=wrap;html=1;" vertex="1" parent="1">
          <mxGeometry x="268" y="370" width="75" height="80" as="geometry" />
        </mxCell>
        <mxCell id="bkOEcCzMHXBcIPFpQamP-74" value="" style="edgeStyle=entityRelationEdgeStyle;fontSize=12;html=1;endArrow=none;endFill=1;" edge="1" parent="1" target="bkOEcCzMHXBcIPFpQamP-73">
          <mxGeometry width="100" height="100" relative="1" as="geometry">
            <mxPoint x="364" y="410" as="sourcePoint" />
            <mxPoint x="232" y="410" as="targetPoint" />
          </mxGeometry>
        </mxCell>
        <mxCell id="bkOEcCzMHXBcIPFpQamP-75" value="Can put up" style="rhombus;whiteSpace=wrap;html=1;" vertex="1" parent="1">
          <mxGeometry x="553" y="376.25" width="70" height="67.5" as="geometry" />
        </mxCell>
        <mxCell id="bkOEcCzMHXBcIPFpQamP-76" value="" style="edgeStyle=entityRelationEdgeStyle;fontSize=12;html=1;endArrow=none;endFill=1;exitX=1;exitY=0.5;exitDx=0;exitDy=0;entryX=0;entryY=0.5;entryDx=0;entryDy=0;" edge="1" parent="1" source="bkOEcCzMHXBcIPFpQamP-4" target="bkOEcCzMHXBcIPFpQamP-75">
          <mxGeometry width="100" height="100" relative="1" as="geometry">
            <mxPoint x="504" y="410" as="sourcePoint" />
            <mxPoint x="651" y="410" as="targetPoint" />
          </mxGeometry>
        </mxCell>
      </root>
    </mxGraphModel>
  </diagram>
</mxfile>
